{
  "accessors": [
    {
      "bufferView": 2,
      "componentType": 5126,
      "count": 65534,
      "max": [
        8.8438215255737305,
        17.750852584838867,
        13.986819267272949
      ],
      "min": [
        -6.7895212173461914,
        -9.3265810012817383,
        -0.11193522065877914
      ],
      "type": "VEC3"
    },
    {
      "bufferView": 2,
      "byteOffset": 786408,
      "componentType": 5126,
      "count": 65534,
      "max": [
        0.99998944997787476,
        0.99995774030685425,
        0.99997872114181519
      ],
      "min": [
        -0.99994653463363647,
        -0.99995434284210205,
        -0.99978083372116089
      ],
      "type": "VEC3"
    },
    {
      "bufferView": 1,
      "componentType": 5126,
      "count": 65534,
      "max": [
        0.99965226650238037,
        0.99968856573104858
      ],
      "min": [
        6.103515625e-05,
        6.1154365539550781e-05
      ],
      "type": "VEC2"
    },
    {
      "bufferView": 0,
      "componentType": 5125,
      "count": 250782,
      "max": [
        65533
      ],
      "min": [
        0
      ],
      "type": "SCALAR"
    },
    {
      "bufferView": 2,
      "byteOffset": 1572816,
      "componentType": 5126,
      "count": 65532,
      "max": [
        13.969345092773438,
        19.996831893920898,
        17.322086334228516
      ],
      "min": [
        -7.0532770156860352,
        -10.75025463104248,
        -0.71100878715515137
      ],
      "type": "VEC3"
    },
    {
      "bufferView": 2,
      "byteOffset": 2359200,
      "componentType": 5126,
      "count": 65532,
      "max": [
        0.99527674913406372,
        0.9999697208404541,
        0.99999338388442993
      ],
      "min": [
        -0.99993646144866943,
        -0.99998980760574341,
        -0.99990856647491455
      ],
      "type": "VEC3"
    },
    {
      "bufferView": 1,
      "byteOffset": 524272,
      "componentType": 5126,
      "count": 65532,
      "max": [
        0.99966007471084595,
        0.99968582391738892
      ],
      "min": [
        6.103515625e-05,
        0.00042736530303955078
      ],
      "type": "VEC2"
    },
    {
      "bufferView": 0,
      "byteOffset": 1003128,
      "componentType": 5125,
      "count": 249915,
      "max": [
        65531
      ],
      "min": [
        0
      ],
      "type": "SCALAR"
    },
    {
      "bufferView": 2,
      "byteOffset": 3145584,
      "componentType": 5126,
      "count": 65532,
      "max": [
        14.022906303405762,
        19.938869476318359,
        16.83476448059082
      ],
      "min": [
        -7.2218813896179199,
        -8.1033248901367188,
        -0.7110137939453125
      ],
      "type": "VEC3"
    },
    {
      "bufferView": 2,
      "byteOffset": 3931968,
      "componentType": 5126,
      "count": 65532,
      "max": [
        0.99857395887374878,
        0.999930739402771,
        0.9999961256980896
      ],
      "min": [
        -0.99999433755874634,
        -0.99997365474700928,
        -1
      ],
      "type": "VEC3"
    },
    {
      "bufferView": 1,
      "byteOffset": 1048528,
      "componentType": 5126,
      "count": 65532,
      "max": [
        0.9996943473815918,
        0.99969220161437988
      ],
      "min": [
        6.103515625e-05,
        0.0018922090530395508
      ],
      "type": "VEC2"
    },
    {
      "bufferView": 0,
      "byteOffset": 2002788,
      "componentType": 5125,
      "count": 215451,
      "max": [
        65531
      ],
      "min": [
        0
      ],
      "type": "SCALAR"
    },
    {
      "bufferView": 2,
      "byteOffset": 4718352,
      "componentType": 5126,
      "count": 65532,
      "max": [
        13.969345092773438,
        19.831058502197266,
        14.860177040100098
      ],
      "min": [
        -7.4836668968200684,
        -11.564891815185547,
        -0.71100860834121704
      ],
      "type": "VEC3"
    },
    {
      "bufferView": 2,
      "byteOffset": 5504736,
      "componentType": 5126,
      "count": 65532,
      "max": [
        0.99948173761367798,
        0.99998933076858521,
        0.99999904632568359
      ],
      "min": [
        -0.99999094009399414,
        -0.99998760223388672,
        -0.99999719858169556
      ],
      "type": "VEC3"
    },
    {
      "bufferView": 1,
      "byteOffset": 1572784,
      "componentType": 5126,
      "count": 65532,
      "max": [
        0.99967455863952637,
        0.99969327449798584
      ],
      "min": [
        6.103515625e-05,
        6.1154365539550781e-05
      ],
      "type": "VEC2"
    },
    {
      "bufferView": 0,
      "byteOffset": 2864592,
      "componentType": 5125,
      "count": 215577,
      "max": [
        65531
      ],
      "min": [
        0
      ],
      "type": "SCALAR"
    },
    {
      "bufferView": 2,
      "byteOffset": 6291120,
      "componentType": 5126,
      "count": 65532,
      "max": [
        12.360811233520508,
        19.34332275390625,
        17.492706298828125
      ],
      "min": [
        -7.2205648422241211,
        -10.350214958190918,
        -0.38928154110908508
      ],
      "type": "VEC3"
    },
    {
      "bufferView": 2,
      "byteOffset": 7077504,
      "componentType": 5126,
      "count": 65532,
      "max": [
        0.99997889995574951,
        0.99997961521148682,
        0.99999904632568359
      ],
      "min": [
        -0.99999076128005981,
        -0.99997133016586304,
        -0.99997609853744507
      ],
      "type": "VEC3"
    },
    {
      "bufferView": 1,
      "byteOffset": 2097040,
      "componentType": 5126,
      "count": 65532,
      "max": [
        0.99968874454498291,
        0.99969500303268433
      ],
      "min": [
        6.103515625e-05,
        0.00079357624053955078
      ],
      "type": "VEC2"
    },
    {
      "bufferView": 0,
      "byteOffset": 3726900,
      "componentType": 5125,
      "count": 197811,
      "max": [
        65531
      ],
      "min": [
        0
      ],
      "type": "SCALAR"
    },
    {
      "bufferView": 2,
      "byteOffset": 7863888,
      "componentType": 5126,
      "count": 65532,
      "max": [
        11.607142448425293,
        18.696826934814453,
        15.57112979888916
      ],
      "min": [
        -7.0761971473693848,
        -11.564891815185547,
        -0.71100640296936035
      ],
      "type": "VEC3"
    },
    {
      "bufferView": 2,
      "byteOffset": 8650272,
      "componentType": 5126,
      "count": 65532,
      "max": [
        0.99970799684524536,
        0.99998503923416138,
        0.99993801116943359
      ],
      "min": [
        -0.99999117851257324,
        -0.99993431568145752,
        -0.99993413686752319
      ],
      "type": "VEC3"
    },
    {
      "bufferView": 1,
      "byteOffset": 2621296,
      "componentType": 5126,
      "count": 65532,
      "max": [
        0.99968039989471436,
        0.99969488382339478
      ],
      "min": [
        6.103515625e-05,
        6.1154365539550781e-05
      ],
      "type": "VEC2"
    },
    {
      "bufferView": 0,
      "byteOffset": 4518144,
      "componentType": 5125,
      "count": 173058,
      "max": [
        65531
      ],
      "min": [
        0
      ],
      "type": "SCALAR"
    },
    {
      "bufferView": 2,
      "byteOffset": 9436656,
      "componentType": 5126,
      "count": 65532,
      "max": [
        14.022908210754395,
        20.010108947753906,
        16.016689300537109
      ],
      "min": [
        -7.2427558898925781,
        -11.504925727844238,
        -0.7110133171081543
      ],
      "type": "VEC3"
    },
    {
      "bufferView": 2,
      "byteOffset": 10223040,
      "componentType": 5126,
      "count": 65532,
      "max": [
        0.99933785200119019,
        0.99997961521148682,
        0.9999544620513916
      ],
      "min": [
        -0.99991685152053833,
        -0.99997913837432861,
        -0.99999994039535522
      ],
      "type": "VEC3"
    },
    {
      "bufferView": 1,
      "byteOffset": 3145552,
      "componentType": 5126,
      "count": 65532,
      "max": [
        0.99969005584716797,
        0.99969112873077393
      ],
      "min": [
        6.103515625e-05,
        0.00079357624053955078
      ],
      "type": "VEC2"
    },
    {
      "bufferView": 0,
      "byteOffset": 5210376,
      "componentType": 5125,
      "count": 147579,
      "max": [
        65531
      ],
      "min": [
        0
      ],
      "type": "SCALAR"
    },
    {
      "bufferView": 2,
      "byteOffset": 11009424,
      "componentType": 5126,
      "count": 23142,
      "max": [
        8.9522790908813477,
        19.938869476318359,
        15.683431625366211
      ],
      "min": [
        -6.9598126411437988,
        -10.025439262390137,
        -0.711006760597229
      ],
      "type": "VEC3"
    },
    {
      "bufferView": 2,
      "byteOffset": 11287128,
      "componentType": 5126,
      "count": 23142,
      "max": [
        0.99866646528244019,
        0.9999268651008606,
        0.99921751022338867
      ],
      "min": [
        -0.99996411800384521,
        -0.99991536140441895,
        -0.99991792440414429
      ],
      "type": "VEC3"
    },
    {
      "bufferView": 1,
      "byteOffset": 3669808,
      "componentType": 5126,
      "count": 23142,
      "max": [
        0.99967992305755615,
        0.99968987703323364
      ],
      "min": [
        6.103515625e-05,
        0.00079357624053955078
      ],
      "type": "VEC2"
    },
    {
      "bufferView": 0,
      "byteOffset": 5800692,
      "componentType": 5125,
      "count": 49311,
      "max": [
        23141
      ],
      "min": [
        0
      ],
      "type": "SCALAR"
    }
  ],
  "asset": {
    "extras": {
      "author": "sonnycirasuolo (https://sketchfab.com/sonnycirasuolo)",
      "license": "COPYRIGHT TO sonnycirasuolo",
      "source": "https://sketchfab.com/3d-models/ame-zion-church-test-model-0b9390448b954ce0b84eae2e49b1d0f5",
      "title": "A.M.E. Zion Church Test Model"
    },
    "generator": "Sketchfab-10.15.0",
    "version": "2.0"
  },
  "bufferViews": [
    {
      "buffer": 0,
      "byteLength": 5997936,
      "byteOffset": 0,
      "name": "floatBufferViews",
      "target": 34963
    },
    {
      "buffer": 0,
      "byteLength": 3854944,
      "byteOffset": 5997936,
      "byteStride": 8,
      "name": "floatBufferViews",
      "target": 34962
    },
    {
      "buffer": 0,
      "byteLength": 11564832,
      "byteOffset": 9852880,
      "byteStride": 12,
      "name": "floatBufferViews",
      "target": 34962
    }
  ],
  "buffers": [
    {
      "byteLength": 21417712,
      "uri": "scene.bin"
    }
  ],
  "extensionsUsed": [
    "KHR_materials_unlit"
  ],
  "images": [
    {
      "uri": "textures/default_tex0_baseColor.jpeg"
    }
  ],
  "materials": [
    {
      "doubleSided": false,
      "emissiveFactor": [
        0,
        0,
        0
      ],
      "extensions": {
        "KHR_materials_unlit": {}
      },
      "name": "default_tex0",
      "pbrMetallicRoughness": {
        "baseColorFactor": [
          1,
          1,
          1,
          1
        ],
        "baseColorTexture": {
          "index": 0,
          "texCoord": 0
        },
        "metallicFactor": 0,
        "roughnessFactor": 1
      }
    }
  ],
  "meshes": [
    {
      "primitives": [
        {
          "attributes": {
            "NORMAL": 1,
            "POSITION": 0,
            "TEXCOORD_0": 2
          },
          "indices": 3,
          "material": 0,
          "mode": 4
        }
      ]
    },
    {
      "primitives": [
        {
          "attributes": {
            "NORMAL": 5,
            "POSITION": 4,
            "TEXCOORD_0": 6
          },
          "indices": 7,
          "material": 0,
          "mode": 4
        }
      ]
    },
    {
      "primitives": [
        {
          "attributes": {
            "NORMAL": 9,
            "POSITION": 8,
            "TEXCOORD_0": 10
          },
          "indices": 11,
          "material": 0,
          "mode": 4
        }
      ]
    },
    {
      "primitives": [
        {
          "attributes": {
            "NORMAL": 13,
            "POSITION": 12,
            "TEXCOORD_0": 14
          },
          "indices": 15,
          "material": 0,
          "mode": 4
        }
      ]
    },
    {
      "primitives": [
        {
          "attributes": {
            "NORMAL": 17,
            "POSITION": 16,
            "TEXCOORD_0": 18
          },
          "indices": 19,
          "material": 0,
          "mode": 4
        }
      ]
    },
    {
      "primitives": [
        {
          "attributes": {
            "NORMAL": 21,
            "POSITION": 20,
            "TEXCOORD_0": 22
          },
          "indices": 23,
          "material": 0,
          "mode": 4
        }
      ]
    },
    {
      "primitives": [
        {
          "attributes": {
            "NORMAL": 25,
            "POSITION": 24,
            "TEXCOORD_0": 26
          },
          "indices": 27,
          "material": 0,
          "mode": 4
        }
      ]
    },
    {
      "primitives": [
        {
          "attributes": {
            "NORMAL": 29,
            "POSITION": 28,
            "TEXCOORD_0": 30
          },
          "indices": 31,
          "material": 0,
          "mode": 4
        }
      ]
    }
  ],
  "nodes": [
    {
      "children": [
        1
      ],
      "name": "RootNode (gltf orientation matrix)",
      "rotation": [
        -0.70710678118654746,
        -0,
        -0,
        0.70710678118654757
      ]
    },
    {
      "children": [
        2
      ],
      "matrix": [
        0.48631211584336143,
        0.29112582054234792,
        0.0015565940830756242,
        0,
        0.015096788605242661,
        -0.022191339928580689,
        -0.56615879286503912,
        0,
        -0.29073828894919984,
        0.48580803085501145,
        -0.026794506475402713,
        0,
        2.8537564277648926,
        -14.018002510070801,
        -3.9681820869445801,
        1
      ],
      "name": "RootNode (model correction matrix)"
    },
    {
      "children": [
        3
      ],
      "name": "root"
    },
    {
      "children": [
        4
      ],
      "matrix": [
        1,
        0,
        0,
        0,
        0,
        2.2204460492503131e-16,
        1,
        0,
        0,
        -1,
        2.2204460492503131e-16,
        0,
        0,
        0,
        0,
        1
      ],
      "name": "GLTF_SceneRootNode"
    },
    {
      "children": [
        5,
        6,
        7,
        8,
        9,
        10,
        11,
        12
      ],
      "name": "_0"
    },
    {
      "mesh": 0,
      "name": ""
    },
    {
      "mesh": 1,
      "name": ""
    },
    {
      "mesh": 2,
      "name": ""
    },
    {
      "mesh": 3,
      "name": ""
    },
    {
      "mesh": 4,
      "name": ""
    },
    {
      "mesh": 5,
      "name": ""
    },
    {
      "mesh": 6,
      "name": ""
    },
    {
      "mesh": 7,
      "name": ""
    }
  ],
  "samplers": [
    {
      "magFilter": 9729,
      "minFilter": 9729,
      "wrapS": 33071,
      "wrapT": 33071
    }
  ],
  "scene": 0,
  "scenes": [
    {
      "name": "OSG_Scene",
      "nodes": [
        0
      ]
    }
  ],
  "textures": [
    {
      "sampler": 0,
      "source": 0
    }
  ]
}

